
<svg width="143px" height="29px" viewBox="0 0 143 29" version="1.1" xmlns="http://www.w3.org/2000/svg" xmlns:xlink="http://www.w3.org/1999/xlink">
    <defs></defs>
    <g id="Page-1" stroke="none" stroke-width="1" fill="none" fill-rule="evenodd">
        <g id="Edit-Ticket" transform="translate(-48.000000, -822.000000)" fill-rule="nonzero">
            <g id="Left-Menu">
                <g id="event-menu">
                    <g id="footer" transform="translate(48.000000, 822.000000)">
                        <g id="picatic-logo-color-lightbg">
                            <g id="Group" transform="translate(0.000000, 2.034375)" fill="#33CB7B">
                                <path d="M21.4026193,0.133978125 L30.1746859,0.133978125 L23.50836,17.5897875 L14.7362935,17.5897875 L21.4026193,0.133978125 M10.1456899,0.133978125 L18.9177564,0.133978125 L8.91159686,26.2902281 L0.139530336,26.2902281 L10.1456899,0.133978125" id="Shape"></path>
                            </g>
                            <g id="Group" transform="translate(41.414383, 0.000000)" fill="#000000">
                                <path d="M6.50678318,14.1670969 L7.60190176,14.1670969 C9.95835233,14.1670969 12.2811711,14.1670969 12.2811711,10.9742906 C12.2811711,7.67773125 10.1240099,7.64314688 7.60190176,7.64314688 L6.50678318,7.64314688 L6.50678318,14.1670969 L6.50678318,14.1670969 Z M0.00194564213,2.16050625 L9.95835233,2.16050625 C15.3344395,2.16050625 19.0511719,4.76305312 19.0511719,10.7662031 C19.0511719,16.9428562 15.8655998,19.6497375 10.1907176,19.6497375 L6.50678318,19.6497375 L6.50678318,28.3246031 L0.00194564213,28.3246031 L0.00194564213,2.16050625 L0.00194564213,2.16050625 Z M21.1421812,10.5232406 L27.1820103,10.5232406 L27.1820103,28.3246031 L21.1421812,28.3246031 L21.1421812,10.5232406 Z M27.5472351,3.68715937 C27.5472351,5.63056875 26.0207399,7.22668125 24.1620958,7.22668125 C22.3037296,7.22668125 20.7769564,5.63056875 20.7769564,3.68715937 C20.7769564,1.74404062 22.3037296,0.1476375 24.1620958,0.1476375 C26.0207399,0.1476375 27.5472351,1.74404062 27.5472351,3.68715937 L27.5472351,3.68715937 Z M42.7796674,16.3183031 C41.8835602,15.6242906 40.8217955,15.0691969 39.6599692,15.0691969 C37.3371504,15.0691969 35.5115822,16.9428563 35.5115822,19.406775 C35.5115822,21.9744469 37.2704427,23.7789375 39.7594749,23.7789375 C40.8217955,23.7789375 41.9830659,23.3278875 42.7796674,22.5644156 L42.7796674,27.9084281 C41.4521836,28.6024406 39.9918402,28.9148625 38.5314968,28.9148625 C33.4872806,28.9148625 29.2724638,24.9934594 29.2724638,19.6148625 C29.2724638,13.88955 33.4542047,9.93327187 38.7969379,9.93327187 C40.1911295,9.93327187 41.5850431,10.2805687 42.7796674,10.9742906 L42.7796674,16.3183031 L42.7796674,16.3183031 Z M50.8765961,19.4413594 C50.8765961,21.6969 52.3035856,23.4319313 54.7595419,23.4319313 C57.2154982,23.4319313 58.6424877,21.6969 58.6424877,19.4413594 C58.6424877,17.2552781 57.2154982,15.4159125 54.7595419,15.4159125 C52.3035856,15.4159125 50.8765961,17.2552781 50.8765961,19.4413594 L50.8765961,19.4413594 Z M64.4835833,28.3246031 L58.4434763,28.3246031 L58.4434763,26.3469 L58.3770465,26.3469 C57.3152818,28.1165156 55.2242724,28.9148625 53.2330467,28.9148625 C48.1888305,28.9148625 44.6374777,24.507825 44.6374777,19.406775 C44.6374777,14.305725 48.1221227,9.93327187 53.1666169,9.93327187 C55.1247667,9.93327187 57.1824222,10.6967437 58.4434763,12.2582719 L58.4434763,10.5232406 L64.4835833,10.5232406 L64.4835833,28.3246031 L64.4835833,28.3246031 Z M74.4394341,28.3246031 L68.3990491,28.3246031 L68.3990491,15.728625 L66.4414552,15.728625 L66.4414552,10.5232406 L68.3990491,10.5232406 L68.3990491,5.17951875 L74.4394341,5.17951875 L74.4394341,10.5232406 L77.8576494,10.5232406 L77.8576494,15.728625 L74.4394341,15.728625 L74.4394341,28.3246031 L74.4394341,28.3246031 Z M79.1184255,10.5232406 L85.1582545,10.5232406 L85.1582545,28.3246031 L79.1184255,28.3246031 L79.1184255,10.5232406 Z M85.5234794,3.68715937 C85.5234794,5.63056875 83.9969841,7.22668125 82.13834,7.22668125 C80.2799738,7.22668125 78.7532006,5.63056875 78.7532006,3.68715937 C78.7532006,1.74404062 80.2799738,0.1476375 82.13834,0.1476375 C83.9969841,0.1476375 85.5234794,1.74404062 85.5234794,3.68715937 L85.5234794,3.68715937 Z M100.755912,16.3183031 C99.8598044,15.6242906 98.7980397,15.0691969 97.6362134,15.0691969 C95.3133947,15.0691969 93.4878265,16.9428563 93.4878265,19.406775 C93.4878265,21.9744469 95.2466869,23.7789375 97.7357191,23.7789375 C98.7980397,23.7789375 99.9593101,23.3278875 100.755912,22.5644156 L100.755912,27.9084281 C99.4284278,28.6024406 97.9680844,28.9148625 96.507741,28.9148625 C91.4635248,28.9148625 87.248708,24.9934594 87.248708,19.6148625 C87.248708,13.88955 91.4304489,9.93327187 96.7731822,9.93327187 C98.1673737,9.93327187 99.5612873,10.2805687 100.755912,10.9742906 L100.755912,16.3183031 L100.755912,16.3183031 Z" id="Shape"></path>
                            </g>
                        </g>
                    </g>
                </g>
            </g>
        </g>
    </g>
</svg>
